# xmcd
#
# Track frame offsets: 
#        150
#        19258
#        39154
#        82002
#        102833
#        130271
#        161918
#        190760
#        212677
#        232041
#
# Disc length: 3474 seconds
#
# Revision: 0
# Processed by: cddbd v1.5.1PL0 Copyright (c) Steve Scherf et al.
# Submitted via: ExactAudioCopy v0.95a5
#
DISCID=810d900a
DTITLE=Junior Kimbrough - Sad Days, Lonely Nights
DYEAR=1900
DGENRE=blues
TTITLE0=Sad Days, Lonely Nights
TTITLE1=Lonesome in My Home
TTITLE2=Lord, Have Mercy on Me
TTITLE3=Crawling King Snake
TTITLE4=My Mind is Rumbling
TTITLE5=Leaving in the Morning
TTITLE6=Old Black Mattie
TTITLE7=I'm in Love
TTITLE8=Pull Your Clothes Off
TTITLE9=I'm Gonna Have to Leave Here
EXTD=
EXTT0=
EXTT1=
EXTT2=
EXTT3=
EXTT4=
EXTT5=
EXTT6=
EXTT7=
EXTT8=
EXTT9=
PLAYORDER=
